<?xml version="1.0" standalone="no"?>
<!DOCTYPE svg PUBLIC "-//W3C//DTD SVG 1.1//EN" "http://www.w3.org/Graphics/SVG/1.1/DTD/svg11.dtd" >
<svg xmlns="http://www.w3.org/2000/svg" xmlns:xlink="http://www.w3.org/1999/xlink" version="1.1">
<metadata>
Created by FontForge 20150102 at Wed Jan 21 11:29:43 2015
 By uniteet7
</metadata>
<defs>
<font id="HouzzGlyphs" horiz-adv-x="512" >
  <font-face 
    font-family="HouzzGlyphs"
    font-weight="400"
    font-stretch="normal"
    units-per-em="512"
    panose-1="0 0 0 0 0 0 0 0 0 0"
    ascent="520"
    descent="8"
    bbox="0 0 513 515.375"
    underline-thickness="0"
    underline-position="0"
    unicode-range="U+0001-FFFD"
  />
<missing-glyph horiz-adv-x="0" 
 />
    <glyph glyph-name=".notdef" unicode="&#xfffd;" horiz-adv-x="0" 
 />
    <glyph glyph-name="glyph1" horiz-adv-x="0" 
d="M0 0v0v0v0z" />
    <glyph glyph-name="glyph1" horiz-adv-x="0" 
d="M0 0v0v0v0z" />
    <glyph glyph-name="nonmarkingreturn" horiz-adv-x="170" 
 />
    <glyph glyph-name="uni0001" horiz-adv-x="0" 
d="M0 0v0v0v0z" />
    <glyph glyph-name="space" unicode=" " horiz-adv-x="256" 
d="M0 0v0v0v0z" />
    <glyph glyph-name="uniE600" unicode="&#xe600;" 
d="M255 1q-52 0 -98.5 20t-81.5 55t-55 81.5t-20 99.5t20 99.5t55 80.5q35 35 81.5 55t98.5 20q53 0 99.5 -20t81.5 -55q35 -34 55 -80.5t20 -99.5t-20 -99.5t-55 -81.5t-81.5 -55t-99.5 -20v0zM255 482q-46 0 -87 -17.5t-72 -48.5q-31 -30 -48.5 -71.5t-17.5 -87.5
q0 -47 17.5 -88t48.5 -72q31 -30 72 -48t87 -18q47 0 88 18t72 48q30 31 48 72t18 88q0 46 -18 87.5t-48 71.5q-31 31 -72 48.5t-88 17.5v0zM255 402l-86 -50v-99l86 50v99zM169 253v-100l86 50zM255 303v-199l87 49v199z" />
    <glyph glyph-name="uniE601" unicode="&#xe601;" 
d="M256 511q-53 0 -99.5 -20t-81.5 -55q-35 -34 -55 -80.5t-20 -99.5t20 -99.5t55 -81.5q34 -35 81 -55t100 -20t99.5 20t81.5 55q35 34 55 81t20 100t-20 99.5t-55 80.5q-35 35 -81.5 55t-99.5 20v0zM371 174l-33 -33l-82 80l-82 -80l-33 33l82 82l-82 81l33 33l82 -82
l82 82l33 -33l-82 -81l82 -82v0z" />
    <glyph glyph-name="uniE602" unicode="&#xe602;" 
d="M256 512q-53 0 -99.5 -20t-81.5 -55t-55 -81.5t-20 -99.5t20 -99.5t55 -81.5t81.5 -55t99.5 -20t99.5 20t81.5 55q35 34 55 81t20 100t-20 99.5t-55 81.5t-81.5 55t-99.5 20v0zM396 232h-116v-116h-47v116h-115v47h115v115h47v-115h116v-47v0z" />
    <glyph glyph-name="uniE603" unicode="&#xe603;" 
d="M256 512q-53 0 -99.5 -20t-81.5 -55t-55 -81.5t-20 -99.5t20 -99.5t55 -81.5t81.5 -55t99.5 -20t99.5 20t81.5 55q35 34 55 81t20 100t-20 99.5t-55 81.5t-81.5 55t-99.5 20v0zM241 156v0l-34 -33l-115 115l33 33l82 -82l163 163l33 -33l-162 -163v0z" />
    <glyph glyph-name="uniE604" unicode="&#xe604;" 
d="M256 512q-53 0 -99.5 -20.5t-81.5 -54.5q-34 -35 -54.5 -81.5t-20.5 -99.5t20.5 -99.5t54.5 -81.5q35 -34 81.5 -54.5t99.5 -20.5t99.5 20.5t81.5 54.5q34 35 54.5 81.5t20.5 99.5t-20.5 99.5t-54.5 81.5q-35 34 -81.5 54.5t-99.5 20.5v0zM315 258h-39v-95v-47h-61v47v95
h-26v48h26v29q0 17 13 39.5t49 22.5l44 -1v-51h-14h-18t-8.5 -2.5t-4.5 -10.5v-26h47l-8 -48v0z" />
    <glyph glyph-name="uniE605" unicode="&#xe605;" 
d="M256 512q-53 0 -99.5 -20.5t-81.5 -54.5q-34 -35 -54.5 -81.5t-20.5 -99.5t20.5 -99.5t54.5 -81.5q35 -34 81.5 -54.5t99.5 -20.5t99.5 20.5t81.5 54.5q34 35 54.5 81.5t20.5 99.5t-20.5 99.5t-54.5 81.5q-35 34 -81.5 54.5t-99.5 20.5v0zM382 320v-4v-4q0 -33 -12 -65.5
t-35 -59.5q-24 -27 -58.5 -43.5t-79.5 -16.5q-27 0 -52.5 7.5t-46.5 21.5q3 0 7 -0.5t8 -0.5q23 0 43.5 7.5t37.5 20.5q-21 0 -38 13t-23 32q3 -1 6 -1h7t8.5 0.5t8.5 1.5q-23 5 -37.5 22.5t-14.5 41.5v0v1q6 -4 13.5 -6t15.5 -3q-13 9 -21 23.5t-8 31.5q0 9 2.5 17t6.5 15
q24 -29 58.5 -47.5t75.5 -20.5q-1 4 -1.5 7.5t-0.5 7.5q0 27 19 46t46 19q14 0 26.5 -5.5t21.5 -14.5q11 2 21 6t20 9q-4 -11 -11.5 -20.5t-17.5 -15.5q10 1 19.5 4t18.5 7q-7 -10 -15 -18.5t-18 -15.5v0z" />
    <glyph glyph-name="uniE606" unicode="&#xe606;" 
d="M256 512q-53 0 -99.5 -20.5t-81.5 -54.5q-34 -35 -54.5 -81.5t-20.5 -99.5t20.5 -99.5t54.5 -81.5q35 -34 81.5 -54.5t99.5 -20.5t99.5 20.5t81.5 54.5q34 35 54.5 81.5t20.5 99.5t-20.5 99.5t-54.5 81.5q-35 34 -81.5 54.5t-99.5 20.5v0zM396 200q0 -18 -12.5 -30
t-29.5 -12h-196q-17 0 -29.5 12t-12.5 30v112q0 17 12.5 29t29.5 12h196q17 0 29.5 -12t12.5 -29v-112v0zM228 208l80 53l-80 53v-106z" />
    <glyph glyph-name="uniE607" unicode="&#xe607;" 
d="M405 426h-298q-27 0 -45.5 -18t-18.5 -46v-212q0 -26 18.5 -45t45.5 -19h298q27 0 45.5 19t18.5 45v212q0 28 -18.5 46t-45.5 18v0zM192 171v170l149 -85l-149 -85v0z" />
    <glyph glyph-name="uniE608" unicode="&#xe608;" 
d="M113 205v-21h41v-20h-21v-21h21v-20h-41v-21h61v103h-61zM195 143v41h204v-41h-204v0zM195 246v41h204v-41h-204v0zM174 307h-61v-20h34l-32 -41h-2v-21h61v21h-35l35 41v20zM195 348v41h204v-41h-204v0zM133 410h21v-82h-21v82v0z" />
    <glyph glyph-name="uniE609" unicode="&#xe609;" 
d="M118 138h40v39h-40v-39v0zM118 236h40v40h-40v-40v0zM118 335h40v39h-40v-39v0zM197 138h197v39h-197v-39v0zM197 236h197v40h-197v-40v0zM197 374v-39h197v39h-197v0z" />
    <glyph glyph-name="uniE60A" unicode="&#xe60a;" 
d="M199 388q-16 0 -26 -14.5t-7 -36.5t17 -36t30 -15q17 0 25.5 13t5.5 35q-2 22 -15 37.5t-30 16.5v0zM209 224q-25 0 -42.5 -13t-17.5 -31q0 -19 15.5 -32t40.5 -13q34 0 47.5 12.5t13.5 30.5q0 3 -0.5 5t-0.5 4q-3 11 -12.5 18t-22.5 16q-5 1 -10.5 2t-10.5 1v0zM256 512
q-53 0 -99.5 -20.5t-81.5 -54.5q-34 -35 -54.5 -81.5t-20.5 -99.5t20.5 -99.5t54.5 -81.5q35 -34 81.5 -54.5t99.5 -20.5t99.5 20.5t81.5 54.5q34 35 54.5 81.5t20.5 99.5t-20.5 99.5t-54.5 81.5q-35 34 -81.5 54.5t-99.5 20.5v0zM278 335q0 -14 -7 -25t-18 -19
q-10 -8 -13 -13t-3 -12q0 -6 9 -13.5t15 -11.5q20 -15 26 -27t6 -31q0 -23 -23.5 -43.5t-64.5 -20.5q-36 0 -62.5 14.5t-26.5 38.5q0 23 23 43.5t59 20.5h7.5h7.5q-5 5 -8.5 10t-3.5 12q0 4 1 8t3 8h-4h-4q-29 0 -45.5 18t-16.5 44t22.5 46.5t54.5 20.5h49h33l-18 -21h-22
q12 -7 18 -19.5t6 -27.5v0zM387 342h-35v-34h-17v34h-34v16h34v36h17v-36h35v-16v0z" />
    <glyph glyph-name="uniE60B" unicode="&#xe60b;" 
d="M256 1q-53 0 -99.5 20.5t-81.5 54.5q-35 35 -55 81.5t-20 99.5t20 99.5t55 81.5t81.5 55t99.5 20t99.5 -20t81.5 -55t55 -81.5t20 -99.5t-20 -99.5t-55 -81.5q-35 -34 -81.5 -54.5t-99.5 -20.5v0zM256 493q-49 0 -92 -18.5t-75 -50.5t-50.5 -75t-18.5 -92t18.5 -91.5
t50.5 -74.5t75 -50.5t92 -18.5t92 18.5t75 50.5t50.5 75t18.5 91q0 49 -18.5 92t-50.5 75t-75 50.5t-92 18.5v0zM369 197h-51.5t-50.5 0t-34.5 -29.5l-35.5 -29.5v59h-32h-22q-13 0 -16.5 8t-3.5 10v119l2 9.5t15 9.5h230l9.5 -2.5t9.5 -15.5v-117l-2 -10t-18 -11v0z" />
    <glyph glyph-name="uniE60C" unicode="&#xe60c;" 
d="M244 1q3 0 6 1t5 4l16 17q2 2 3.5 5t1.5 7q0 3 -1.5 6t-3.5 6l-199 209l199 209q2 3 3.5 6t1.5 6q0 4 -1.5 7t-3.5 5l-16 17q-2 3 -5 4t-6 1t-6 -1t-6 -4l-226 -238q-2 -2 -3.5 -5.5t-1.5 -6.5t1.5 -6.5t3.5 -5.5l226 -238q3 -3 6 -4t6 -1v0z" />
    <glyph glyph-name="uniE60D" unicode="&#xe60d;" 
d="M256 512q-53 0 -99.5 -20.5t-81.5 -54.5q-34 -35 -54.5 -81.5t-20.5 -99.5t20.5 -99.5t54.5 -81.5q35 -34 81.5 -54.5t99.5 -20.5t99.5 20.5t81.5 54.5q34 35 54.5 81.5t20.5 99.5t-20.5 99.5t-54.5 81.5q-35 34 -81.5 54.5t-99.5 20.5v0zM184 125h-55v175h55v-175v0z
M157 324q-14 0 -23 9t-9 22t9 22.5t23 9.5q13 0 22 -9.5t9 -22.5t-9 -22t-22 -9v0zM387 125h-54v85q0 15 -4 30.5t-25 15.5t-26.5 -13.5t-5.5 -30.5v-87h-54v175h52v-24v0q6 10 19 19t33 9q41 0 53 -24t12 -59v-96v0v0z" />
    <glyph glyph-name="uniE60E" unicode="&#xe60e;" 
d="M256 512q-53 0 -99.5 -20.5t-81.5 -54.5q-34 -35 -54.5 -81.5t-20.5 -99.5t20.5 -99.5t54.5 -81.5q35 -34 81.5 -54.5t99.5 -20.5t99.5 20.5t81.5 54.5q34 35 54.5 81.5t20.5 99.5t-20.5 99.5t-54.5 81.5q-35 34 -81.5 54.5t-99.5 20.5v0zM159 129q-16 0 -27 11t-11 27
t11 26.5t27 10.5q15 0 26 -11t11 -26q0 -16 -11 -27t-26 -11v0zM255 125q0 27 -10 51t-28 43q-19 19 -43 29t-50 10v54q38 0 72 -15t59 -40t40 -59t15 -73h-55v0zM351 125q0 47 -18 89t-48 73q-31 31 -72.5 49t-88.5 18v54q58 0 109.5 -22.5t89.5 -60.5q38 -39 60.5 -90.5
t22.5 -109.5h-55v0v0z" />
    <glyph glyph-name="uniE60F" unicode="&#xe60f;" 
d="M268 511q-3 0 -6 -1t-5 -4l-16 -17q-2 -2 -3.5 -5t-1.5 -7q0 -3 1.5 -6t3.5 -6l199 -209l-199 -209q-2 -3 -3.5 -6t-1.5 -6q0 -4 1.5 -7t3.5 -5l16 -17q2 -3 5 -4t6 -1t6 1t6 4l226 238q2 2 3.5 5.5t1.5 6.5t-1.5 6.5t-3.5 5.5l-226 238q-3 3 -6 4t-6 1v0z" />
    <glyph glyph-name="uniE610" unicode="&#xe610;" 
d="M419 109h-75v22h75q6 0 11 2t7 6l43 93l20 -9l-43 -93q-5 -12 -16.5 -16.5t-21.5 -4.5v0zM344 109h-164q-13 0 -23.5 5.5t-13.5 15.5l-25 58q-2 6 -5 13.5t-6 14.5l-31 68q-1 4 -6.5 5.5t-11.5 1.5h-38v22h38q15 0 25 -5.5t14 -14.5l30 -68q3 -7 6.5 -15t5.5 -14l24 -57
q2 -4 7 -6t10 -2h164v-22v0zM350 85h47v-47h-47v47v0zM188 85h47v-47h-47v47v0z" />
    <glyph glyph-name="uniE611" unicode="&#xe611;" 
d="M256 459l51 -128l4 -12h12l138 -10l-107 -88l-9 -8l4 -12l33 -134l-116 73l-10 8l-10 -6l-116 -73l33 134l4 12l-9 8l-107 88l138 10h12l4 12l51 126v0zM256 512l-69 -173l-187 -12l142 -120l-44 -181l158 98l158 -98l-46 181l144 120l-185 14l-71 171v0z" />
    <glyph glyph-name="uniE612" unicode="&#xe612;" 
d="M256 512v0l-69 -173l-187 -12l142 -120l-44 -181l158 98v24l-10 -6l-116 -73l33 134l4 12l-9 8l-107 88l138 10h12l4 12l51 126v53v0z" />
    <glyph glyph-name="uniE613" unicode="&#xe613;" 
d="M256 124l-158 -98l46 181l-144 120l187 12l69 173v-388z" />
    <glyph glyph-name="uniE614" unicode="&#xe614;" 
d="M257 0q-53 0 -99.5 20t-81.5 55t-55 81.5t-20 99.5t20 99.5t55 81.5t81.5 55t99.5 20t99.5 -20t81.5 -55t55 -81.5t20 -99.5t-20 -99.5t-55 -81.5t-81.5 -55t-99.5 -20v0zM257 492q-49 0 -92 -18.5t-75 -50.5t-50.5 -75t-18.5 -92t18.5 -92t50.5 -75t75 -50.5t92 -18.5
t92 18.5t75 50.5t50.5 75t18.5 92t-18.5 92t-50.5 75t-75 50.5t-92 18.5v0zM355 251q14 0 9 -25.5t-17 -25.5q6 0 1 -20.5t-17 -20.5q0 -13 -10.5 -19t-22.5 -6q-52 0 -57 5.5t-58 10.5h-32q-7 0 -12 3.5t-5 13.5v117q0 10 5 13.5t12 3.5h32q46 14 84.5 41t38.5 59
q10 0 23.5 -19t-23.5 -81h21.5h27.5q19 0 15.5 -25t-15.5 -25v0zM167 284v-117h16v117h-16v0z" />
    <glyph glyph-name="uniE615" unicode="&#xe615;" 
d="M460 458l-2 2q-33 32 -79.5 32t-79.5 -32l-101 -101q-32 -33 -32 -79t32 -79l2 -2q3 -3 6 -5t6 -5l37 37q-4 2 -7 4.5t-5 4.5l-2 2q-18 18 -18 43t18 43l101 100q17 18 42.5 18t42.5 -18l2 -1q18 -18 18 -43t-18 -43l-45 -45q6 -15 8.5 -30.5t2.5 -31.5l71 71
q32 32 32 78.5t-32 79.5v0v0zM310 313q-2 2 -5 4.5t-6 5.5l-37 -37q3 -2 6 -4.5t6 -4.5l2 -2q18 -18 18 -43t-18 -43l-101 -101q-18 -17 -43 -17t-43 17l-2 2q-17 18 -17 43t17 43l46 45q-6 15 -9 30.5t-2 31.5l-71 -71q-33 -33 -33 -79t33 -79l2 -2q33 -32 79.5 -32
t78.5 32l101 101q33 32 33 78.5t-33 79.5l-2 2v0z" />
    <glyph glyph-name="uniE616" unicode="&#xe616;" 
d="M434 168v0v0q-4 11 -58 32.5t-60 25.5q-4 3 -11 10.5t-11 11.5q5 8 9.5 18t10.5 22v1l1 1q2 -1 4 -0.5t4 0.5q5 3 7.5 13.5t2.5 16.5q0 10 -3.5 11l-3.5 1h-0.5h-0.5v1.5v1.5q0 9 1 21.5t-2 21.5q-4 12 -5.5 18.5t-8.5 13.5q-12 9 -25.5 13.5t-19.5 4.5q-4 0 -10.5 3.5
t-19.5 0.5q-13 -4 -12 -12t-9 -8q-12 0 -18 -11t-10 -23q-3 -9 -2 -21.5t1 -21.5v-1.5v-1.5v0v0l-4 -1t-4 -11q0 -6 2.5 -16.5t7.5 -13.5q2 0 4 -0.5t5 0.5v-1v-1q6 -12 11 -22.5t10 -18.5q-4 -5 -10.5 -11.5t-10.5 -9.5q-6 -4 -60.5 -25.5t-56.5 -32.5v-0.5v-0.5
q27 -36 73 -62t104 -26q54 0 103.5 27t74.5 62v0z" />
    <glyph glyph-name="uniE617" unicode="&#xe617;" 
d="M51 469v-462h410v462h-410v0zM410 123h-307v294h307v-294v0zM255 210q-5 0 -10.5 1t-11.5 3q-11 5 -19 13t-13 19l-78 184q-9 22 0 44.5t31 31.5q22 10 44.5 0.5t32.5 -31.5l2 -6l-20 -9l-3 7q-6 13 -20 19t-27 0q-14 -6 -19.5 -20t0.5 -28l78 -184q3 -6 8 -11t12 -8
q6 -3 13.5 -3t13.5 3q7 3 12 8t8 12q2 7 2 14t-3 14l-41 97q-2 4 -0.5 8.5t6.5 6.5q4 2 8 0t6 -6l42 -98q4 -11 4.5 -22.5t-4.5 -21.5q-4 -11 -12 -19.5t-19 -12.5q-6 -3 -11.5 -4t-11.5 -1v0z" />
    <glyph glyph-name="uniE618" unicode="&#xe618;" 
d="M505 35l-152 151q21 26 33.5 58.5t12.5 68.5q0 41 -16 77t-43 64q-27 27 -63.5 42.5t-77.5 15.5t-77 -15.5t-64 -42.5q-27 -28 -42.5 -64t-15.5 -77t15.5 -77.5t42.5 -63.5q28 -27 64 -43t77 -16q33 0 63 10.5t55 28.5l153 -152l35 35v0zM49 313q0 62 44 106t106 44
t106 -44t44 -106t-44 -106t-106 -44t-106 44t-44 106v0z" />
    <glyph glyph-name="uniE619" unicode="&#xe619;" 
d="M37 502v-492h437v492h-437v0zM420 133h-327v314h327v-314v0z" />
    <glyph glyph-name="uniE61A" unicode="&#xe61a;" 
d="M256 451q-40 0 -75.5 -15.5t-62.5 -41.5q-26 -27 -41.5 -62.5t-15.5 -75.5t15.5 -75.5t41.5 -62.5q27 -26 62.5 -41.5t75.5 -15.5t75.5 15.5t62.5 41.5q26 27 41.5 62.5t15.5 75.5t-15.5 75.5t-41.5 62.5q-27 26 -62.5 41.5t-75.5 15.5v0zM256 85q-28 0 -54.5 9t-48.5 26
q-22 16 -37.5 38.5t-23.5 47.5l139 140q2 1 3 3.5t1 4.5t-1 4.5t-3 4.5l-5 5h80v-80l-10 10v0v0v0v0v0q0 1 -0.5 1h-0.5v0v0v0h-0.5t-0.5 1v0h-0.5h-0.5v0h-1v0v1h-0.5h-0.5v0v0v0h-0.5h-0.5v0v0v0h-0.5h-0.5v0v0h-1v0v0v0h-0.5h-0.5v0v0v0h-1v0v0h-0.5h-0.5l-1 -0.5
l-1 -0.5h-1v0v0v0l-1 -1v0v0v0v0h-0.5t-0.5 -1v0v0h-0.5h-0.5l-59 -58l-21 22l-4 2t-5 1h-2t-3 -1q-3 -1 -5 -4t-2 -7v-122q0 -5 3.5 -8.5t8.5 -3.5h122q3 0 6 2t5 6q1 3 0.5 6.5t-3.5 6.5l-18 18l123 122q1 -6 1.5 -12t0.5 -12q0 -36 -13.5 -67t-36.5 -54t-54.5 -36.5
t-66.5 -13.5v0zM256 427q28 0 54 -8.5t48 -25.5q22 -16 37.5 -38t23.5 -47l-142 -141q-3 -4 -3 -9t3 -8l6 -6h-81v80l10 -9q2 -2 4 -3t5 -1q2 0 4 1t4 3l59 57l22 -22q1 -1 3.5 -2t4.5 -1h2t3 1q3 1 5 4t2 7v121q0 5 -3.5 8.5t-8.5 3.5h-121q-4 0 -7 -2t-5 -5
q-1 -4 -0.5 -7.5t3.5 -5.5l18 -18l-120 -120q0 6 -0.5 11.5t-0.5 10.5q0 34 13 65.5t37 55.5t55.5 37t65.5 13v0z" />
    <glyph glyph-name="uniE61B" unicode="&#xe61b;" 
d="M256 428q35 0 66 -13t56 -37q24 -25 37 -56t13 -66t-13 -66t-37 -56q-25 -24 -56 -37t-66 -13t-66 13t-56 37q-24 25 -37 56t-13 66t13 66t37 56q25 24 56 37t66 13v0zM256 450q-40 0 -75.5 -15t-61.5 -42q-27 -26 -42 -61.5t-15 -75.5t15 -75.5t42 -61.5
q26 -27 61.5 -42t75.5 -15t75.5 15t61.5 42q27 26 42 61.5t15 75.5t-15 75.5t-42 61.5q-26 27 -61.5 42t-75.5 15v0v0zM227 213q0 41 31 57.5t31 47.5q0 15 -12 25.5t-30 10.5q-17 0 -29 -7.5l-12 -7.5l-20 25l17 11.5t47 11.5q31 0 53.5 -18t22.5 -48q0 -46 -32 -62
t-32 -49v-15h-35v18v0zM226 160h36v-35h-36v35v0z" />
    <glyph glyph-name="uniE61C" unicode="&#xe61c;" 
d="M337 195h-0.5h-1.5q-2 0 -4.5 1.5t-4.5 3.5q-1 2 -1.5 5t0.5 5l7 19l-13 -21q-2 -4 -6.5 -5t-8.5 1q-20 10 -30.5 30.5t-8.5 46.5q1 15 8.5 37t29.5 46q20 22 48.5 39t64.5 30q4 1 8.5 -1t5.5 -6q1 -2 7 -22.5t10 -49.5t1.5 -61t-19.5 -57q-14 -20 -37 -30.5t-55 -10.5v0
v0v0zM379 339h2.5t2.5 -1q4 -2 5.5 -5.5t0.5 -7.5l-39 -107q21 2 35.5 9.5t24.5 21.5q24 34 16.5 85.5t-14.5 73.5q-30 -11 -53.5 -26t-40.5 -33q-18 -21 -24.5 -39t-7.5 -30q-1 -16 4 -29.5t15 -21.5l63 105q2 3 4.5 4t5.5 1v0zM219 78q-29 0 -57 14t-50 40q-16 18 -27 41
t-18 49q-7 30 -8 63.5t5 70.5q0 2 1.5 4t3.5 4q2 1 4.5 1.5t4.5 -0.5t30.5 -11.5t66.5 -29.5q51 -27 83 -56t45 -60q9 -21 8 -43.5t-13 -44.5q-1 -2 -3 -3.5t-5 -1.5q-3 -1 -5.5 0t-4.5 3l-44 45l36 -56q3 -3 2 -7.5t-5 -7.5q-10 -7 -23 -10.5t-27 -3.5v0zM84 339
q-7 -60 4.5 -109.5t40.5 -83.5q19 -22 42.5 -34t47.5 -12q8 0 15 1.5t13 3.5l-91 139q-2 4 -1.5 8t3.5 7t7.5 2.5t7.5 -3.5l112 -113q4 14 3.5 27.5t-6.5 27.5q-13 34 -49 60.5t-69 43.5q-24 13 -45.5 22t-34.5 13v0z" />
    <glyph glyph-name="uniE61D" unicode="&#xe61d;" 
d="M224 128q-67 0 -113 23l-48 24q-3 2 -4 5.5t0 6.5q2 3 4.5 5t5.5 1q3 1 19.5 4.5t38.5 13.5q29 14 50 34.5t35 47.5q22 43 39 70t34 45q19 20 40 30t46 10q16 0 35 -4.5t41 -14.5q2 -1 3.5 -3.5t1.5 -5.5t-1.5 -5t-3.5 -4q-1 0 -18.5 -13t-17.5 -43q0 -17 -1.5 -48.5
t-13.5 -65.5q-12 -33 -37 -62t-71 -42q-15 -5 -31.5 -7t-32.5 -2v0zM97 179q20 -10 53.5 -20.5t73.5 -10.5q15 0 30 2t29 6q35 9 58.5 32t36.5 60q10 30 12 60t2 46q0 25 10 40.5t20 23.5q-15 5 -27.5 7.5t-23.5 2.5q-43 0 -74 -37t-67 -107q-19 -37 -46 -58.5t-49 -32.5
q-10 -5 -20 -8.5t-18 -5.5v0zM384 403q0 -6 -5 -10t-11 -4q-7 0 -11.5 4t-4.5 10t4.5 10t11.5 4q6 0 11 -4t5 -10v0zM222 134q-5 10 2.5 45t30.5 65q17 24 51 43.5t92 9.5l-4 -19q-36 6 -64.5 -3t-50.5 -32q-25 -28 -33 -61.5t-6 -39.5v0v1l-18 -9v0zM181 145l20 -1l-2 -79
h-20l2 80v0zM219 145l19 -1l-2 -79h-19l2 80v0z" />
    <glyph glyph-name="uniE61E" unicode="&#xe61e;" 
d="M255 511q-52 0 -99 -20t-81 -54q-35 -35 -55 -81.5t-20 -99.5t20 -99.5t55 -81.5q35 -34 81.5 -54t98.5 -20q53 0 99.5 20t81.5 54q35 35 55 81.5t20 99.5t-20 99.5t-55 81.5q-35 34 -81.5 54t-99.5 20v0zM128 356h255q1 0 3 -0.5t3 -0.5l-134 -117l-133 117q1 0 3 0.5
t3 0.5v0zM110 174v164q0 2 0.5 4t1.5 3l96 -84l-96 -94q-1 2 -1.5 3.5t-0.5 3.5v0zM383 156h-255q-1 0 -3 0.5t-4 1.5l98 94l36 -32l37 32l98 -94q-2 -1 -4 -1.5t-3 -0.5v0zM401 174q0 -2 -0.5 -3.5t-1.5 -3.5l-96 94l96 84q1 -2 1.5 -3.5t0.5 -3.5v-164v0z" />
    <glyph glyph-name="uniE61F" unicode="&#xe61f;" 
d="M256 0q-53 0 -99.5 20t-80.5 55q-35 35 -55 81.5t-20 99.5t20 99.5t55 81.5q34 35 80.5 55t99.5 20t99.5 -20t80.5 -55q35 -35 55 -81.5t20 -99.5t-20 -99.5t-55 -81.5q-34 -35 -80.5 -55t-99.5 -20v0zM256 492q-49 0 -91.5 -18.5t-74.5 -50.5t-50.5 -75t-18.5 -92
t18.5 -92t50.5 -75t74.5 -50.5t91.5 -18.5t91.5 18.5t74.5 50.5t50.5 75t18.5 92t-18.5 92t-50.5 75t-74.5 50.5t-91.5 18.5v0zM256 387h-81v-262l81 71l81 -71v262h-81z" />
    <glyph glyph-name="uniE620" unicode="&#xe620;" 
d="M256 512q-53 0 -99.5 -20t-80.5 -55q-35 -35 -55 -81.5t-20 -99.5t20 -99.5t55 -81.5q34 -35 80.5 -55t99.5 -20t99.5 20t80.5 55q35 35 55 81.5t20 99.5t-20 99.5t-55 81.5q-34 35 -80.5 55t-99.5 20v0zM337 125l-81 71l-81 -71v262h162v-262v0z" />
    <glyph glyph-name="uniE621" unicode="&#xe621;" 
d="M256 0q-53 0 -99.5 20t-81.5 55t-55 81.5t-20 99.5t20 99.5t55 81.5t81.5 55t99.5 20t99.5 -20t81.5 -55t55 -81.5t20 -99.5t-20 -99.5t-55 -81.5t-81.5 -55t-99.5 -20v0zM256 482q-47 0 -88 -18t-72 -48q-30 -31 -48 -72t-18 -88t18 -88t48 -72q31 -30 72 -48t88 -18
t88 18t72 48q30 31 48 72t18 88t-18 88t-48 72q-31 30 -72 48t-88 18v0zM364 305l-108 108l-109 -108l22 -22l72 72v-235h30v235l72 -72z" />
    <glyph glyph-name="uniE622" unicode="&#xe622;" 
d="M242 5h-237v8l0.5 12t1.5 21q1 7 13.5 13.5t41.5 16.5l10 4t6 2q2 1 4 4t4 5q-1 4 -2.5 8t-3.5 8q-1 1 -1.5 2.5t-0.5 3.5q-1 0 -2 0.5t-2 1.5q-7 4 -8.5 15.5l-1.5 11.5q0 4 1 7t3 5l1 1v0v2.5v2.5v12.5t1 11.5q2 9 7 19.5t15 10.5v0v0q1 2 3 5.5t6 6.5q3 2 7 3.5t8 1.5
q9 0 15.5 -3t8.5 -4q0 -1 1.5 -1t2.5 -1q5 -1 11.5 -4t11.5 -8q4 -5 5.5 -9t2.5 -9q1 -2 1.5 -4t0.5 -4q2 -5 2 -11.5t-1 -12.5v-2.5v-2.5v0l1 -1q2 -2 3 -5t1 -7l-1.5 -11.5t-8.5 -15.5l-1.5 -1.5t-1.5 -0.5q-1 -1 -1.5 -2.5t-0.5 -2.5q-2 -4 -3.5 -8t-3.5 -8q2 -3 4.5 -6
t4.5 -4q1 0 6 -2l10 -4q29 -10 41 -16.5t14 -12.5q2 -8 2 -20.5v-14.5l-1 -7v0zM21 20h206v12t-1 10q-4 4 -20 10t-25 10q-11 3 -15 5l-6 3q-3 3 -7.5 8.5t-6.5 9.5l-2 3l2 4q2 4 3.5 8.5l3.5 10.5l2 4l2 4l2 6h6q1 2 1.5 6.5t0.5 7.5v0.5v0.5l-4 1v6v2v4v5v10.5v8.5
q-1 2 -1.5 4.5t-1.5 3.5q-1 5 -1.5 7t-2.5 4q-4 4 -8.5 5.5t-8.5 3.5q-2 0 -4 1t-3 2q-3 1 -7 3t-9 2q-1 0 -3 -0.5t-3 -1.5q-1 -2 -2 -3t-1 -3q-1 -2 -4 -5.5t-10 -3.5q-1 0 -3 -3.5t-5 -15.5q-1 -3 -1 -8.5v-10.5q0 -2 0.5 -4.5t0.5 -4.5v-8l-5 -1v-0.5v-0.5q0 -3 0.5 -7
t1.5 -7l5 1l3 -7q1 -2 2 -4.5t2 -5.5q2 -5 4 -9.5t4 -8.5l2 -4l-2 -3q-3 -4 -7 -9t-7 -8q-2 -1 -6 -2.5t-14 -5.5q-10 -3 -26 -9.5t-20 -9.5q0 -5 -0.5 -11.5t-0.5 -11.5v0zM506 5h-237v8l0.5 12t1.5 21q1 7 13.5 13.5t41.5 16.5l10 4t6 2q1 1 3.5 4t4.5 5q-2 4 -3.5 8
t-2.5 8q-1 1 -1.5 2.5t-1.5 3.5q-1 0 -1.5 0.5l-1.5 1.5q-7 4 -8.5 15.5l-1.5 11.5q0 4 1 7t3 5q0 1 0.5 1h0.5v2.5v2.5q-1 6 -1 12.5t2 11.5q2 9 7 19.5t15 10.5v0v0q1 2 3 5.5t6 6.5q3 2 7 3.5t8 1.5q9 0 15.5 -3t8.5 -4q0 -1 1.5 -1t2.5 -1q5 -1 11 -4t12 -8q4 -5 5.5 -9
t2.5 -9q1 -2 1.5 -4t0.5 -4q2 -5 2 -11.5t-1 -12.5v-2.5v-2.5v0v-1q3 -2 4 -5t1 -7l-1.5 -11.5t-8.5 -15.5q-1 -1 -2 -1.5t-2 -0.5q0 -1 -0.5 -2.5t-0.5 -2.5q-2 -4 -3.5 -8t-3.5 -8q2 -3 4.5 -6t4.5 -4q1 0 6 -2l10 -4q28 -10 40.5 -16.5t13.5 -12.5q3 -8 3 -20.5t-1 -14.5
v-7v0zM285 20h206v12t-1 10q-4 4 -20 10t-25 10q-11 3 -15 5l-6 3q-3 3 -7.5 8.5t-6.5 9.5l-2 3l2 4q1 4 3 8.5t4 10.5l2 4l2 4l2 6h6q1 2 1.5 6.5t0.5 7.5v0.5v0.5l-4 1v6v2v4v5v10.5t-1 8.5q0 2 -0.5 4.5t-1.5 3.5q-1 5 -1.5 7t-2.5 4q-4 4 -8.5 5.5t-8.5 3.5q-2 0 -4 1
t-3 2q-3 1 -7 3t-9 2q-2 0 -3.5 -0.5t-2.5 -1.5q-1 -2 -2 -3t-1 -3q-1 -2 -4 -5.5t-10 -3.5q-1 0 -3 -3.5t-5 -15.5q-1 -3 -1 -8.5v-10.5v-4.5v-4.5l1 -8l-5 -1v-0.5v-0.5q0 -3 0.5 -7t1.5 -7l5 1l3 -7q1 -2 2 -4.5t2 -5.5q2 -5 4 -9.5t4 -8.5l2 -4l-3 -3q-2 -4 -6 -9t-8 -8
q-1 -1 -5 -2.5t-15 -5.5q-9 -3 -25 -9.5t-20 -9.5q0 -5 -0.5 -11.5t-0.5 -11.5v0zM356 239l-55 55h-90l-55 -55v55h-61v213h323v-213h-62v-55v0zM205 308h103l34 -35v35h62v185h-295v-185h61v-35l35 35v0zM356 411h-199v14h199v-14v0zM356 376h-199v14h199v-14v0z" />
    <glyph glyph-name="uniE623" unicode="&#xe623;" 
d="M509 56h-506v400h506v-400v0zM17 70h478v372h-478v-372v0zM151 323h-92v91h92v-91v0zM73 337h64v63h-64v-63v0zM151 210h-92v92h92v-92v0zM73 224h64v64h-64v-64v0zM151 98h-92v91h92v-91v0zM73 112h64v63h-64v-63v0zM446 379h-267v14h267v-14v0zM446 351h-267v14h267
v-14v0zM446 267h-267v14h267v-14v0zM446 238h-267v14h267v-14v0zM446 154h-267v14h267v-14v0zM446 126h-267v14h267v-14v0zM97 126l-17 14l8 8l8 -7l25 27l8 -6l-32 -36v0z" />
    <glyph glyph-name="uniE624" unicode="&#xe624;" 
d="M191 164l45 -46v118h-118l45 -44l-55 -55l28 -28l55 55v0zM321 348l-45 46v-118h118l-45 44l55 55l-28 28l-55 -55v0z" />
    <glyph glyph-name="uniE625" unicode="&#xe625;" 
d="M348 320l45 -45v118h-118l45 -45l-157 -157l-45 45v-118h118l-45 45l157 157v0z" />
    <glyph glyph-name="uniE627" unicode="&#xe627;" 
d="M177 368q0 7 -2.5 12.5t-7.5 10.5t-10.5 7.5t-12.5 2.5t-12.5 -2.5t-10.5 -7.5t-7.5 -10.5t-2.5 -12.5t2.5 -13t7.5 -10q5 -5 10.5 -7.5t12.5 -2.5t12.5 2.5t10.5 7.5q5 4 7.5 10t2.5 13v0zM450 221q0 -7 -2.5 -13t-6.5 -10l-126 -126q-5 -5 -11 -7.5t-13 -2.5
q-6 0 -12 2.5t-11 7.5l-183 183q-5 5 -9 11t-7 15q-4 8 -5.5 15t-1.5 14v107q0 7 2.5 12.5t7.5 10.5t10.5 7.5t12.5 2.5h106q7 0 14.5 -2t15.5 -5q8 -4 15 -8t11 -9l184 -182q4 -5 6.5 -11t2.5 -12v0z" />
    <glyph glyph-name="uniE629" unicode="&#xe629;" 
d="M427 128q-3 9 -21.5 18t-57.5 23l-16 6t-10 4q-3 2 -7.5 7.5t-8.5 10.5q3 6 5.5 12.5t5.5 14.5q1 2 2 4.5t2 5.5q2 0 3.5 0.5t2.5 1.5q8 4 10 18t2 18q0 6 -1 10t-4 7h-0.5t-1.5 1q0 2 0.5 4.5t0.5 4.5v12v12h24v13h-12v8q0 27 -14.5 49t-38.5 33v14h-72v-14
q-24 -11 -38.5 -33t-14.5 -49v-8h-12v-13h23v-11v-12v-5.5v-4.5l-0.5 -0.5l-0.5 -0.5q-3 -3 -4.5 -7t-1.5 -10l2 -15.5t10 -20.5q2 -1 3.5 -1.5t3.5 -0.5l2 -6l2 -6q3 -7 5.5 -13.5t5.5 -12.5l-8 -10t-7 -7q-2 -1 -9.5 -4t-15.5 -6q-40 -14 -59 -23.5t-21 -18.5
q-1 -12 -1.5 -30t-0.5 -19l-1 -7h348v7v19.5t-3 30.5v0zM332 344v-8h-40v75q18 -10 29 -28t11 -39v0zM279 427v-91h-46v91h46v0zM180 344q0 21 11 39t29 28v-75h-40v8v0zM417 85h-321q0 7 0.5 19.5t1.5 20.5q1 1 5.5 4.5t19.5 10.5q11 4 23.5 8.5t22.5 8.5q15 5 21 7.5
t8 3.5q4 4 10 11.5l10 12.5l2 3l-2 4q-3 5 -6 12t-6 16q-1 3 -2.5 7t-2.5 7q0 1 -0.5 1h-0.5v0.5v0.5l-2 5l-5 -1h-2h-1q-2 2 -4 10t-2 16q0 2 0.5 3.5l0.5 1.5l7 2l-1 5v1v1v0.5v0.5v6v7v11v11h128q1 -6 1 -11.5t-1 -11.5v-6v-6v-0.5v-1.5v-6l6 -2q1 0 1 -1.5v-3.5
q0 -8 -2 -16t-4 -10h-0.5h-1.5l-6 1l-2 -5v-0.5v-0.5v0q-2 -4 -3 -7l-2 -6q-3 -9 -6 -16t-6 -13l-1 -3l1 -3q3 -5 9.5 -13t11.5 -12q2 -2 8.5 -4.5t20.5 -7.5q10 -4 22.5 -8.5t23.5 -9.5q15 -7 19.5 -10.5t5.5 -3.5q2 -8 2.5 -20.5t0.5 -19.5v0z" />
    <glyph glyph-name="uniE62B" unicode="&#xe62b;" 
d="M256 513q-53 0 -99.5 -20t-81.5 -55t-55 -81.5t-20 -99.5t20 -99.5t55 -81.5q35 -34 81.5 -54.5t99.5 -20.5t99.5 20.5t81.5 54.5q35 35 55 81.5t20 99.5t-20 99.5t-55 81.5t-81.5 55t-99.5 20v0zM369 197h-51.5t-50.5 0t-34.5 -29.5l-35.5 -29.5v59h-32h-22
q-13 0 -16.5 8t-3.5 10v119l2 9.5t15 9.5h230l9.5 -2.5t9.5 -15.5v-117l-2 -10t-18 -11v0z" />
    <glyph glyph-name="uniE62C" unicode="&#xe62c;" 
d="M453 394l-38 118l-415 -139l118 -353v374h335v0zM159 354v-354h353v354h-353v0zM433 168v-109h-59v76h-79v-76h-59v109h-39l138 137l138 -137h-40v0z" />
    <glyph glyph-name="uniE62E" unicode="&#xe62e;" 
d="M473 473q0 29 -20 34t-19 5h-86.5h-49.5h-142q-32 0 -63.5 -14.5t-35.5 -50.5v-390l1 6q-1 -27 29.5 -45t68.5 -18h33.5h78.5h92.5h73.5l19.5 5.5t19.5 33.5v434v0zM155 473h159v-204q0 -5 -2.5 -8t-6.5 -5q-2 -1 -3.5 -1h-2.5q-3 0 -6 1t-6 3l-51 74l-54 -74
q-4 -3 -9 -4t-10 1q-4 2 -6 8t-2 11v198v0zM432 39h-43h-95h-95h-43q-23 0 -41 11t-18 28q0 16 16.5 28t43.5 12h275v-79v0z" />
    <glyph glyph-name="uniE62F" unicode="&#xe62f;" 
d="M160 248q0 -41 28 -69.5t68 -28.5t68 28.5t28 69.5q0 40 -28 68.5t-68 28.5t-68 -28.5t-28 -68.5v0zM453 394h-91q-6 21 -17 40t-34 19h-118q-22 0 -30 -19t-14 -40h-91q-22 1 -31 -13.5t-9 -26.5l2 -237q-1 -20 7.5 -29t20.5 -9l415 -1q12 0 20.5 14t8.5 26v235
q0 16 -10.5 28.5t-28.5 12.5v0zM256 114q-55 0 -93 39t-38 95q0 55 38 94t93 39q54 0 92.5 -39t38.5 -94q0 -56 -38.5 -95t-92.5 -39v0zM471 315h-56v39h56v-39v0z" />
    <glyph glyph-name="uniE631" unicode="&#xe631;" 
d="M301 210q-4 0 -15.5 -16.5t-19.5 -16.5q-2 0 -3 1.5t-1 3.5q0 5 2 11.5t4 10.5l25 74q9 28 1 38t-20 10q-15 0 -28.5 -7.5t-24.5 -18.5q-3 -4 -11.5 -13.5t-8.5 -14.5q0 -2 1.5 -3.5t3.5 -1.5q4 0 15 16.5t21 16.5q2 0 3.5 -2.5t0.5 -7.5l-25 -67q-2 -5 -8.5 -24
t-6.5 -33q0 -11 6 -16t16 -5q27 0 52 25.5t25 33.5q0 2 -1.5 4t-2.5 2v0zM294 396q-12 0 -20.5 -9t-8.5 -22q0 -11 6.5 -18.5t17.5 -7.5q12 0 20.5 9t8.5 22q0 12 -7 19t-17 7v0zM256 469q41 0 78 -15t66 -44t44 -66t15 -78q0 -40 -15 -77.5t-44 -65.5q-29 -29 -66 -44.5
t-78 -15.5q-40 0 -77 15.5t-66 44.5q-29 28 -44.5 65.5t-15.5 77.5q0 41 15.5 78t44.5 66t66 44t77 15v0zM256 503q-49 0 -92 -19t-75 -51t-50.5 -75t-18.5 -92t18.5 -92t50.5 -75t75 -50.5t92 -18.5t92 18.5t76 50.5q32 32 50.5 75t18.5 92t-18.5 92t-50.5 75
q-33 32 -76 51t-92 19v0v0z" />
    <glyph glyph-name="uniE632" unicode="&#xe632;" 
d="M111 339q18 9 53 18.5t91 9.5q57 0 92 -9.5t53 -18.5q7 3 10.5 7t3.5 8q0 7 -9 13t-24 11q0 27 -11 52.5t-55 35.5v-52q0 -5 -3 -7.5t-7 -2.5t-7 2.5t-3 7.5v59l0.5 0.5l0.5 0.5v18q0 8 -6 14t-14 6h-40q-8 0 -14 -6t-6 -14v-18l0.5 -0.5l0.5 -0.5v-59q0 -5 -3 -7.5
t-7 -2.5t-7 2.5t-3 7.5v53q-44 -11 -55 -36.5t-11 -52.5q-15 -5 -24 -11t-9 -13q0 -4 3.5 -7.5t9.5 -7.5v0zM494 70q-5 16 -73 39t-75 29q-6 5 -15 15.5t-13 18.5q6 12 12 27.5t13 33.5v0.5t1 1.5q2 -1 5 -0.5t5 1.5q6 4 9.5 19.5t3.5 25.5q0 15 -5 16.5l-5 1.5v0v0v2.5v2.5
v9.5t1 10.5q-17 6 -42 9.5t-60 3.5t-61 -4t-43 -9q0 -6 0.5 -11t0.5 -9v-2.5v-2.5h-0.5h-0.5l-5 -1.5t-5 -16.5q1 -10 4 -25.5t9 -19.5q3 -1 5.5 -1.5t5.5 0.5q0 -1 0.5 -1.5l0.5 -0.5q7 -19 13 -35t12 -28q-4 -8 -12.5 -18t-13.5 -14q-8 -6 -77 -29t-71 -39
q-3 -18 -3.5 -44l-0.5 -26h484v26.5t-4 43.5v0z" />
    <glyph glyph-name="uniE633" unicode="&#xe633;" 
d="M257 512q-53 0 -100 -20t-81 -55q-35 -35 -55 -81.5t-20 -99.5t20 -99.5t55 -81.5q34 -35 81 -55t100 -20t99.5 20t81.5 55t55 81.5t20 99.5t-20 99.5t-55 81.5t-81.5 55t-99.5 20v0zM347 200q6 0 1 -20.5t-18 -20.5q0 -13 -10 -19t-23 -6q-51 0 -56.5 5.5t-57.5 10.5
h-32q-7 0 -12 3.5t-5 13.5v117q0 10 5 13.5t12 3.5h32q46 14 84.5 41t38.5 59q10 0 23.5 -19t-23.5 -81h21.5h27.5q19 0 15.5 -25.5t-15.5 -25.5q14 1 9 -24.5t-17 -25.5v0zM167 284v-117h16v117h-16z" />
    <glyph glyph-name="uniE635" unicode="&#xe635;" 
d="M473 482q4 0 6.5 -2.5t2.5 -6.5v-434q0 -4 -2.5 -6.5t-6.5 -2.5h-434q-4 0 -6.5 2.5t-2.5 6.5v434q0 4 2.5 6.5t6.5 2.5h434v0zM473 512h-434q-16 0 -27.5 -11.5t-11.5 -27.5v-434q0 -16 11.5 -27.5t27.5 -11.5h434q16 0 27.5 11.5t11.5 27.5v434q0 16 -11.5 27.5
t-27.5 11.5v0v0zM354 272h-82v82h-32v-82h-82v-32h82v-82h32v82h82v32z" />
    <glyph glyph-name="uniE636" unicode="&#xe636;" 
d="M356 267h-66v-74.5v-69.5v-52v-20h-96v20v51v69.5v75.5h-46v76h46v49q0 27 19 59t78 32h72v-74h-23h-29t-13.5 -4t-7.5 -17v-45h74l-8 -76v0z" />
    <glyph glyph-name="uniE637" unicode="&#xe637;" 
d="M256 213l-65 56l-171 -167q3 -1 6 -1.5t6 -0.5h448q3 0 6 0.5t6 1.5l-171 167l-65 -56v0zM3 433q-1 -3 -2 -6.5t-1 -6.5v-288q0 -4 0.5 -7t2.5 -6l170 166l-170 148v0zM491 450q-2 1 -5 1.5t-6 0.5h-448q-3 0 -6 -0.5t-5 -1.5l235 -206l235 206v0zM509 433l-170 -148
l170 -166q2 3 2.5 6t0.5 7v288q0 3 -1 6.5t-2 6.5v0z" />
    <glyph glyph-name="uniE638" unicode="&#xe638;" 
d="M256 512q-53 0 -99.5 -20t-81.5 -55t-55 -81.5t-20 -99.5t20 -99.5t55 -81.5q35 -34 81.5 -54.5t99.5 -20.5t99.5 20t81.5 55t55 81.5t20 99.5t-20 99.5t-55 81.5t-81.5 55t-99.5 20v0zM215 147l-104 101l36 37l68 -67l152 143l35 -38l-187 -176v0z" />
    <glyph glyph-name="uniE639" unicode="&#xe639;" 
d="M256 0q-53 0 -99.5 20.5t-81.5 54.5q-35 35 -55 81.5t-20 99.5t20 99.5t55 81.5t81.5 55t99.5 20t99.5 -20t81.5 -55t55 -81.5t20 -99.5t-20 -99.5t-55 -81.5t-81.5 -55t-99.5 -20v0zM256 492q-49 0 -91.5 -18.5t-74.5 -50.5t-51 -75t-19 -92q0 -48 18.5 -91t50.5 -75
t75 -51t92 -19t91.5 18.5t74.5 50.5t51 75t19 92t-18.5 92t-50.5 75t-75 50.5t-92 18.5v0zM215 147l-104 101l36 37l68 -67l152 143l35 -38z" />
    <glyph glyph-name="uniE63C" unicode="&#xe63c;" 
d="M256 488h-143v-464l143 126l143 -126v464h-143z" />
    <glyph glyph-name="uniE63D" unicode="&#xe63d;" 
d="M474 162h-99t-98 0q2 1 -66.5 -56l-68.5 -57v113h-61h-42q-26 0 -32.5 15.5t-6.5 20.5v227l3.5 19t29.5 19h443l18 -5t18 -30v-225l-4 -19.5t-34 -21.5v0z" />
    <glyph glyph-name="uniE63E" unicode="&#xe63e;" 
d="M183 85l-183 179l69 70l115 -113l260 245l68 -71z" />
    <glyph glyph-name="uniE63F" unicode="&#xe63f;" 
d="M365 379l-16 65l-303 -69l69 -300l40 9v-16h311v311h-101v0zM125 91l-63 274l278 64l11 -50h-196v-282l-30 -6v0zM453 81h-285v285h285v-285v0zM309 333l-119 -128h44v-99h156v99h41l-122 128v0zM377 218v-98h-43v58h-47v-58h-40v98h-27l89 95l91 -95h-23v0z" />
    <glyph glyph-name="uniE640" unicode="&#xe640;" 
d="M434 226l-103 219h-150l-103 -219h150v-146h-35v-13h126v13h-37v146h56v-60h13v60h83v0zM268 80h-27v146h27v-146v0zM323 432l90 -193h-314l90 193h134v0z" />
    <glyph glyph-name="uniE641" unicode="&#xe641;" 
d="M366 336l-136 -234l-110 -61v135l129 227l117 -67v0zM361 463q24 -14 29.5 -44t-10.5 -59q-1 -1 -59 33.5l-58 34.5q16 28 45 38.5t53 -3.5v0z" />
    <glyph glyph-name="uniE642" unicode="&#xe642;" 
d="M256 124l-158 -98l46 181l-144 120l187 12l69 173l69 -173l187 -12l-144 -120l46 -181z" />
    <glyph glyph-name="uniE643" unicode="&#xe643;" 
d="M297 86q0 -3 -2 -4.5t-4 -1.5h-66q-3 0 -4.5 1.5t-1.5 4.5v225q0 2 1.5 3.5t4.5 1.5h66q2 0 4 -1.5t2 -3.5v-225v0zM416 89q0 -3 -2 -6t-4 -3h-66q-2 0 -4 3t-2 6v335q0 4 2 5.5t4 1.5h66q2 0 4 -1.5t2 -5.5v-335v0zM168 219h-66q-3 0 -4.5 -1.5t-1.5 -4.5v-129
q0 -1 1.5 -2.5t4.5 -1.5h65q3 0 5 1.5t2 2.5v129q0 3 -2 4.5t-4 1.5v0z" />
    <glyph glyph-name="uniE644" unicode="&#xe644;" 
d="M256 350q0 48 -37 82.5t-89 34.5q-53 0 -90 -34.5t-37 -82.5q0 -23 8 -54t43 -63q17 -16 51 -47.5t67 -62.5q34 -31 59 -54.5l25 -23.5l25 23.5t59 54.5t67.5 62.5t50.5 47.5q35 32 43 63t8 54q0 48 -37 82.5t-90 34.5q-52 0 -89 -34.5t-37 -82.5v0z" />
    <glyph glyph-name="uniE646" unicode="&#xe646;" 
d="M508 100q-4 17 -76 41.5t-80 31.5q-5 5 -15 16.5t-14 19.5q6 13 12 29.5t14 35.5v1v1h5.5t5.5 2q6 4 10 20.5t4 26.5q0 16 -5 18l-5 2v0v0v2.5v3.5q0 14 1.5 34.5t-3.5 33.5q-6 21 -7.5 31t-11.5 21q-15 14 -33.5 19.5t-25.5 9.5q-6 3 -29 12t-40 -6q-15 -13 -16 -23
t-14 -10q-15 0 -23 -18.5t-14 -38.5q-3 -12 -1.5 -32.5t1.5 -34.5v-3.5v-2.5v0v0l-5 -2t-5 -18q0 -10 4 -27t10 -20h4h5v-1v-1q8 -21 14.5 -37.5t13.5 -29.5q-4 -8 -13 -18.5t-15 -15.5q-7 -6 -80.5 -30.5t-74.5 -42.5q-5 -19 -5.5 -45.5l-0.5 -26.5h512v27.5t-4 44.5v0z
" />
    <glyph glyph-name="uniE647" unicode="&#xe647;" 
d="M98 451l352 -355l-36 -37l-352 356l36 36v0zM414 451l36 -36l-352 -356l-36 37l352 355v0z" />
    <glyph glyph-name="uniE64E" unicode="&#xe64e;" 
d="M254 254v136h67v102h-286v-464l144 126l142 -126v226h-67zM423 219h-67v69h-68v68h68v67h67v-67h69v-68h-69v-69z" />
    <glyph glyph-name="uniE64F" unicode="&#xe64f;" 
d="M382 104l-41 42l110 110l-110 110l41 42l130 -132v-40l-130 -132v0zM130 104l-130 132v40l130 130l41 -42l-110 -108l110 -110l-41 -42v0zM252 102h-59l65 308h59l-65 -308v0z" />
    <glyph glyph-name="uniE650" unicode="&#xe650;" 
d="M439 345v120h-366v-120h-73v-225h73v-75h366v75h73v225h-73v0zM118 419h276v-74h-276v74v0zM394 93h-276v96h276v-96v0z" />
    <glyph glyph-name="uniE651" unicode="&#xe651;" 
d="M360 134q-3 12 -54 29.5t-56 21.5q-4 3 -10.5 11.5t-11.5 14.5q5 9 9.5 20.5t8.5 24.5v0v2h4.5h3.5q4 3 7 14.5t3 18.5q0 12 -4 13l-4 1v0v0v2.5v1.5q0 11 0.5 25t-0.5 24q-4 15 -5 22t-9 16q-10 10 -23.5 13.5t-17.5 7.5q-5 2 -20.5 7.5t-28.5 -3.5q-11 -8 -11 -15.5
t-9 -7.5q-10 0 -15.5 -13t-10.5 -27q-3 -8 -1.5 -23t1.5 -26v-1.5v-2.5v0v0l-4 -1t-4 -13q0 -7 3 -18.5t7 -14.5q2 -2 4.5 -2t3.5 2v-1v-1q6 -15 10.5 -26.5t9.5 -20.5q-3 -6 -9 -13.5t-11 -10.5q-6 -4 -57.5 -21.5t-52.5 -29.5q-5 -13 -5.5 -32l-0.5 -19h362l0.5 19.5
t-2.5 31.5v0zM510 124q-3 10 -43.5 23.5t-45.5 17.5q-3 3 -8.5 9.5t-6.5 10.5q3 7 7 16.5t8 21.5v0v1h3.5h2.5q3 3 5.5 12.5t2.5 15.5q0 9 -3 9.5l-3 0.5v0v0v1v1q0 7 1 19.5t-1 19.5l-4.5 18t-7.5 12q-8 9 -18.5 12t-14.5 6q-6 2 -19.5 7t-23.5 -4q-8 -5 -8.5 -11t-7.5 -6
q-9 0 -13 -10.5t-9 -21.5q-1 -7 -0.5 -18.5t0.5 -20.5v-1v-1v0v0l-3 -0.5t-3 -9.5q0 -6 2.5 -15.5t5.5 -12.5q2 -1 3.5 -1t2.5 1v0v-2q5 -10 8 -19t6 -16q29 -12 44 -22t19 -23q4 -15 4 -34.5v-26.5h118q2 0 2.5 16t-2.5 25v0z" />
    <glyph glyph-name="uniE652" unicode="&#xe652;" 
d="M1 170q0 -4 1 -6.5t4 -5.5l17 -15q2 -3 5 -4t7 -1q3 0 6 1t6 4l209 199l209 -199q3 -3 6 -4t6 -1q4 0 7 1t5 4l17 15q3 3 4 5.5t1 6.5q0 3 -1 6t-4 5l-238 226q-2 3 -5.5 4t-6.5 1t-6.5 -1t-5.5 -4l-238 -226q-3 -2 -4 -5t-1 -6v0z" />
    <glyph glyph-name="uniE653" unicode="&#xe653;" 
d="M258 317q10 28 3.5 57t-27.5 49q-14 15 -33 22.5t-40 7.5q-11 0 -22.5 -2.5t-22.5 -7.5l-12 -6l71 -71l-29 -29l-71 71l-6 -12q-15 -30 -9.5 -62t29.5 -54q20 -21 49.5 -27.5t56.5 3.5l195 -195l63 63l-195 193v0zM193 276q-24 -11 -48.5 -5.5t-42.5 22.5
q-16 15 -21.5 37t2.5 44l63 -63l57 57l-65 61q22 6 44 0.5t37 -21.5q17 -18 22.5 -42.5t-5.5 -48.5l-2 -6l172 -171l-36 -36l-171 172h-6v0z" />
    <glyph glyph-name="uniE654" unicode="&#xe654;" 
d="M252 435l-195 -187h71v-167h248v167h71l-195 187v0zM356 270v-168h-65v99h-78v-99h-65v168h-42l146 140l146 -140h-42v0z" />
    <glyph glyph-name="uniE655" unicode="&#xe655;" 
d="M256 89h-4.5t-3.5 2q-7 5 -58.5 45.5t-79.5 74.5q-20 25 -29.5 50t-9.5 54q0 44 30.5 76t73.5 32q19 0 37.5 -7t33.5 -20l6 -6t4 -6q3 3 5 6t5 6q15 13 33.5 20t37.5 7q43 0 73.5 -32t30.5 -76q0 -29 -9.5 -54t-29.5 -50q-28 -34 -79.5 -74.5t-58.5 -45.5q-2 0 -3.5 -1
t-4.5 -1v0zM175 404q-35 0 -59.5 -26t-24.5 -63q0 -25 8 -46.5t27 -44.5q25 -29 71 -66t61 -48q15 11 61 47t71 67q18 23 26.5 44.5t8.5 46.5q0 37 -24.5 63t-59.5 26q-17 0 -31.5 -6t-25.5 -18q-5 -4 -9 -9t-7 -11l-12 -13l-8 13q-3 6 -7 11t-9 9q-11 12 -25.5 18t-31.5 6
v0z" />
    <glyph glyph-name="uniE656" unicode="&#xe656;" 
d="M256 453q-41 0 -76.5 -15.5t-62.5 -42.5t-42.5 -62.5t-15.5 -76.5t15.5 -76.5t42.5 -62.5t62.5 -42.5t76.5 -15.5t76.5 15.5t62.5 42.5t42.5 62.5t15.5 76.5t-15.5 76.5t-42.5 62.5t-62.5 42.5t-76.5 15.5v0zM79 246h69q0 -21 3 -41t9 -38h-58q-10 18 -16 37.5t-7 41.5v0
zM266 345h67q4 -18 8 -37.5t4 -41.5h-79v79v0zM266 364v67q18 -4 33.5 -21.5t27.5 -45.5h-61v0zM246 431v-67h-61q12 28 27.5 46t33.5 21v0zM246 345v-79h-79q0 22 4 41.5t8 37.5h67v0zM148 266h-69q1 22 7 41.5t16 37.5h56q-5 -18 -7.5 -38t-2.5 -41v0zM167 246h79v-79h-67
q-6 18 -9 37.5t-3 41.5v0zM246 148v-67q-18 4 -33.5 21.5t-27.5 45.5h61v0zM266 81v67h61q-12 -28 -27.5 -46t-33.5 -21v0zM266 167v79h79q0 -22 -4 -41.5t-8 -37.5h-67v0zM364 246h69q-1 -22 -7 -41.5t-16 -37.5h-56q5 18 7.5 38t2.5 41v0zM364 266q0 21 -3 41t-9 38h56
q10 -18 16 -37.5t7 -41.5h-67v0zM396 364h-49q-6 18 -15 33t-19 26q25 -8 46 -23t37 -36v0zM199 423q-10 -11 -19 -26t-15 -33h-49q16 21 37 36t46 23v0zM116 148h49q6 -18 15 -33t19 -26q-25 8 -46 23t-37 36v0zM313 89q10 11 19 26t15 33h49q-16 -21 -37 -36t-46 -23v0z
" />
    <glyph glyph-name="uniE657" unicode="&#xe657;" 
d="M366 69h-4q-37 0 -98.5 30.5t-98.5 65.5q-37 37 -66.5 98.5t-29.5 98.5v4l2 2q9 14 34 44.5t45 30.5q17 0 44.5 -25.5t35.5 -47.5q6 -15 3.5 -24t-7.5 -13q-8 -9 -14 -11.5t-9 -4.5v-1.5v-2.5q0 -15 13.5 -31t31.5 -32q16 -16 33 -30.5t30 -14.5h3h1q2 4 4.5 10t11.5 13
q4 5 9 6.5t11 1.5q25 0 58.5 -32.5t33.5 -51.5q0 -21 -30.5 -45.5t-44.5 -33.5l-2 -4v0zM89 360q1 -34 29.5 -90t60.5 -89q33 -32 89 -61.5t90 -30.5q24 16 43.5 34.5t19.5 26.5q0 10 -26.5 37.5t-45.5 27.5q-3 0 -4 -1t-2 -1q-5 -6 -6.5 -10.5t-1.5 -5.5q-3 -9 -9 -11.5
t-15 -2.5q-21 0 -40 16t-39 33q-19 20 -34 38.5t-15 40.5q0 9 2 15t12 9q3 0 6.5 2t11.5 10q3 3 2 7.5t-2 7.5q-9 22 -32.5 41.5t-30.5 19.5q-9 0 -28 -20t-35 -43v0z" />
    <glyph glyph-name="uniE658" unicode="&#xe658;" 
d="M453 69h-394v10q0 1 0.5 20.5t3.5 34.5q1 12 22 22.5t69 26.5q8 3 17 6t10 4q3 1 7 6.5t9 11.5q-3 6 -6 13l-6 14q-1 3 -1.5 6t-2.5 6q-1 0 -3 1t-5 1q-10 7 -12.5 25l-2.5 18q0 6 1 11.5t4 8.5l1 1l1 1v5v5q0 10 -0.5 21t2.5 18q5 15 12.5 32.5t23.5 17.5l1 0.5l1 0.5
q1 3 3.5 8.5t10.5 9.5q4 5 10.5 6.5t12.5 1.5q14 0 25 -5t13 -7q1 0 3 -1t5 -1q7 -3 17.5 -7t19.5 -12q7 -8 9.5 -14.5t4.5 -15.5q0 -3 1 -6t3 -8q3 -9 2.5 -19t-0.5 -20v-5.5v-4.5h1t1 -2q3 -3 4 -7.5t1 -12.5l-2 -18.5t-11 -24.5q-2 -1 -3.5 -1.5t-2.5 -0.5l-4 -10l-6 -14
t-6 -13q3 -6 8 -11.5t8 -8.5q1 -1 10 -4t17 -6q46 -16 67 -26.5t24 -20.5q4 -13 4 -34.5v-22.5l-2 -10v0zM79 89h354q0 8 -0.5 21t-3.5 20q-4 6 -32 17t-45 16q-16 6 -23 9.5t-10 4.5q-6 5 -13.5 14.5t-10.5 15.5l-2 4l2 6q3 6 6.5 14t7.5 17l8 22h10q0 1 2 9.5t2 15.5v3v1
v0l-8 2v12v6v8q0 9 0.5 18t-0.5 15q-2 5 -2.5 8t-1.5 6q-1 8 -3 11.5t-5 8.5q-6 6 -14 9.5t-15 6.5q-5 1 -8 1.5t-4 2.5q-6 2 -19 6.5t-21 -1.5l-4.5 -4.5t-2.5 -4.5q-2 -5 -6 -9.5t-14 -4.5q-6 0 -10.5 -13t-7.5 -21v-16v-17v-8v-6v-12l-8 -2v-1v-3q0 -7 2.5 -15.5
t3.5 -11.5l8 2l4 -6q1 -6 3.5 -10.5t4.5 -7.5q3 -9 6 -17t8 -14l2 -4l-2 -4q-5 -6 -11.5 -14.5t-12.5 -13.5q-3 -1 -10 -4.5t-23 -9.5q-17 -7 -46 -19t-33 -18q0 -7 -1 -20t-1 -21v0z" />
    <glyph glyph-name="uniE659" unicode="&#xe659;" 
d="M268 250l-12 2l-12 -2l-11 8l-12 2l-6 12l-10 9v12l-6 10l6 10v13l10 8l6 12l12 2l11 8l12 -2l12 2l11 -8l12 -2l6 -12l10 -8v-13l6 -10l-6 -10v-12l-10 -9l-6 -12l-12 -2l-11 -8v0zM256 274l6 -2l6 4l6 3l2 6l7 4v8l4 6l-4 6v8l-7 5l-2 6l-6 2l-6 4l-6 -2l-6 2l-6 -4
l-6 -2l-2 -6l-9 -5v-8l-4 -6l4 -6v-8l6 -4l3 -6l6 -3l6 -4l8 2v0zM256 342l10 2l8 -6h9l4 -8l8 -6v-11l4 -8l-4 -8v-10l-8 -6l-4 -9l-11 -2l-8 -6l-8 -2l-10 -2l-8 6l-11 2l-4 8l-8 7v10l-4 8l4 8v10l8 7l6 12l11 2l8 6l8 -4v0zM362 215l27 21v34l14 31l-14 31v35l-27 20
l-14 33l-33 6l-26 23l-33 -7l-33 9l-26 -23l-33 -6l-14 -31l-27 -20v-35l-14 -31l14 -31v-34l27 -21l14 -33l10 -4l-39 -112l62 30l28 -51l41 111h2l45 -115l25 53l63 -30l-53 120l14 27v0zM143 248v28l-12 27l12 27v28l23 19l12 26l29 7l22 18l27 -6l29 6l22 -18l29 -7
l12 -26l21 -19v-28l12 -27l-12 -27v-28l-23 -19l-12 -26l-29 -6l-22 -19l-27 6l-29 -6l-22 19l-29 6l-12 26l-21 19v0zM221 96l-16 29l-33 -16l25 67h2l26 -22l23 6l-27 -64v0zM330 127l-15 -29l-22 60l22 20l17 4l30 -69l-32 14v0z" />
    <glyph glyph-name="uniE65A" unicode="&#xe65a;" 
d="M256 69v0q-12 0 -19 6t-7 8q-20 24 -40.5 50.5t-36.5 54.5q-17 27 -27 55.5t-10 57.5q0 59 41 101.5t99 42.5t99 -42.5t41 -101.5q0 -29 -10 -57.5t-27 -55.5q-16 -28 -37 -54.5t-42 -50.5q1 -2 -5.5 -8t-18.5 -6v0zM256 423q-50 0 -85 -36t-35 -88q0 -26 9.5 -53
t25.5 -53t35.5 -51.5t39.5 -48.5q2 -2 4.5 -4t5.5 -2v0q3 0 5.5 2t4.5 4q20 23 39.5 48.5t35.5 51.5t25.5 53t9.5 53q0 52 -35 88t-85 36v0zM256 246q-25 0 -43 17t-18 42t18 42t43 17t43 -17t18 -42t-18 -42t-43 -17v0zM256 345q-16 0 -28.5 -12t-12.5 -28t11.5 -27.5
t29.5 -11.5t29.5 11.5t11.5 27.5t-12.5 28t-28.5 12v0z" />
    <glyph glyph-name="uniE65B" unicode="&#xe65b;" 
d="M156 456l-100 -100l300 -300l100 100l-300 300v0zM86 356l70 70l28 -27l-32 -30l15 -15l31 30l35 -34l-30 -30l15 -15l29 30l37 -36l-30 -30l15 -15l30 30l34 -34l-30 -30l15 -15l30 30l34 -34l-30 -30l15 -15l30 30l27 -28l-68 -72l-270 270v0z" />
    <glyph glyph-name="uniE65C" unicode="&#xe65c;" 
d="M439 199q-3 6 -8.5 10t-11.5 4h-43v230h-240v-230h-43q-8 0 -14 -5.5t-6 -12.5v-106q0 -8 5.5 -14t14.5 -6h328q8 0 14 5.5t6 14.5v108l-2 2v0zM156 423h200v-210h-200v210v0zM421 89h-328v104h326h1h1v-104v0zM372 167q-12 0 -19.5 -7.5t-5.5 -19.5q0 -12 7.5 -20
t17.5 -8q12 0 20 8.5t8 19.5q0 12 -8.5 19.5t-19.5 7.5v0zM199 284h116v-20h-116v20v0zM199 337h116v-20h-116v20v0zM199 390h116v-20h-116v20v0z" />
    <glyph glyph-name="uniE65D" unicode="&#xe65d;" 
d="M394 394h-276q-21 0 -35 -14.5t-14 -34.5v-178q0 -20 14 -34.5t35 -14.5h276q21 0 35 14.5t14 34.5v178q0 20 -14 34.5t-35 14.5v0zM423 345v-178v-5.5t-2 -5.5l-114 94l116 95v0v0v0zM118 374h276q6 0 11.5 -2.5t10.5 -7.5l-160 -130l-160 130q5 5 10.5 7.5t11.5 2.5v0z
M91 156q-2 3 -2 5.5v5.5v178v0v2l116 -95l-114 -96v0zM118 138q-4 0 -7.5 1t-6.5 3l117 96l35 -29l35 29l117 -96q-3 -2 -6.5 -3t-7.5 -1h-276v0z" />
    <glyph glyph-name="uniE65E" unicode="&#xe65e;" 
d="M394 423v-334h-276v334h276v0zM414 443h-316v-374h316v374v0zM158 384h196v-79h-196v79v0zM158 266h39v-20h-39v20v0zM315 266h39v-20h-39v20v0zM236 266h40v-20h-40v20v0zM158 207h39v-20h-39v20v0zM315 207h39v-20h-39v20v0zM236 207h40v-20h-40v20v0zM158 148h39v-20
h-39v20v0zM315 148h39v-20h-39v20v0zM236 148h40v-20h-40v20v0z" />
    <glyph glyph-name="uniE65F" unicode="&#xe65f;" 
d="M196 330q0 5 -2 9.5t-6 8.5t-8.5 6t-9.5 2q-6 0 -10.5 -2t-8.5 -6t-6 -8.5t-2 -9.5q0 -6 2 -10.5t6 -8.5t8.5 -6t10.5 -2q5 0 9.5 2t8.5 6t6 8.5t2 10.5v0zM415 212q0 -6 -2 -10.5t-6 -8.5l-100 -101q-4 -3 -9 -5t-10 -2q-6 0 -10.5 2t-8.5 5l-146 147q-4 4 -7.5 9
t-6.5 12q-2 6 -3.5 12t-1.5 11v86q0 5 2 9.5t6 8.5t8.5 6t9.5 2h86q5 0 11 -1.5t13 -3.5q6 -3 11.5 -6.5t9.5 -7.5l146 -146q4 -4 6 -8.5t2 -9.5v0z" />
    <glyph glyph-name="uniE660" unicode="&#xe660;" 
d="M414 276h-138v138h-40v-138h-138v-40h138v-138h40v138h138v40z" />
    <glyph glyph-name="uniE662" unicode="&#xe662;" 
d="M437 246q22 0 27.5 44.5t-27.5 44.5h-48h-38q32 55 39.5 89.5t1.5 54.5q-6 19 -19.5 26t-21.5 7q0 -28 -19 -54.5t-49 -49.5q-31 -23 -69.5 -42t-79.5 -31h-59q-12 0 -20 -5t-8 -23v-209q0 -17 8.5 -23t21.5 -6h59q90 -10 99.5 -20t101.5 -10q22 0 40.5 11t18.5 33
q22 0 31 37.5t-2 37.5q21 0 29 44t-17 44v0zM134 98h-30v207h30v-32v-71v-71.5v-32.5v0z" />
    <glyph glyph-name="uniE665" unicode="&#xe665;" 
d="M429 358l-4 -4l-71 73l4 4l12 11t30 11q7 0 16.5 -3.5t18.5 -14.5q31 -31 12.5 -54l-18.5 -23v0zM408 337l-243 -244l-106 -34l34 106l244 243l71 -71v0z" />
    <glyph glyph-name="uniE666" unicode="&#xe666;" 
d="M368 161q-12 0 -20.5 -7.5t-8.5 -19.5t8.5 -20t20.5 -8t21 8t9 20t-9 19.5t-21 7.5v0zM193 161q-12 0 -21 -7.5t-9 -19.5t9 -20t21 -8t21 8t9 20t-9 19.5t-21 7.5v0zM388 203h-215l-77 191h-66v29h86l77 -191h175l61 124l28 -11z" />
    <glyph glyph-name="uniE667" unicode="&#xe667;" 
d="M382 321v-3.5v-4.5q0 -32 -12 -65t-35 -60q-24 -27 -58.5 -43.5t-79.5 -16.5q-28 0 -53 7.5t-48 22.5h8.5h7.5q22 0 43.5 7t37.5 20q-21 0 -38 13t-23 32q3 0 6 -1t6 -1q4 0 8.5 0.5t8.5 1.5q-22 5 -36.5 22.5t-14.5 40.5v0v0q6 -3 14 -5t16 -2q-13 8 -21.5 22t-8.5 31
q0 9 2.5 17.5t5.5 15.5q24 -29 59 -47t75 -20q-1 3 -1.5 7t-0.5 7q0 27 19 46t46 19q13 0 25.5 -5.5t21.5 -14.5q11 2 22 6t20 10q-3 -12 -11 -20.5t-17 -14.5q10 1 19.5 4t18.5 5q-6 -10 -14.5 -18.5t-17.5 -14.5v0z" />
    <glyph glyph-name="uniE668" unicode="&#xe668;" 
d="M295 404h-33h-49q-31 0 -54 -21t-23 -46q0 -27 16.5 -45t46.5 -18h3.5h4.5q-2 -3 -3 -7.5t-1 -8.5q0 -7 3.5 -12t8.5 -10h-8.5h-7.5q-36 0 -58.5 -20.5t-22.5 -44.5q0 -23 26.5 -38t62.5 -15q41 0 64.5 21t23.5 44q0 19 -6 30.5t-25 26.5l-15 12.5t-9 13.5q0 7 3 12
t13 13q10 9 17 19.5t7 24.5q0 15 -6 27.5t-18 19.5h20l19 22v0zM264 187q0 -1 1 -3.5t1 -4.5q0 -18 -13.5 -30.5t-47.5 -12.5q-24 0 -39.5 13t-15.5 32q0 18 17.5 31.5t41.5 13.5q6 0 10.5 -1t10.5 -2q12 -11 22 -18.5t12 -17.5v0zM213 286q-17 0 -31 14.5t-17 36.5
t7.5 36.5t26.5 14.5t29 -16.5t16 -36.5q3 -22 -5.5 -35.5t-25.5 -13.5v0zM352 358v36h-17v-36h-34v-15h34v-36h17v36h34v15h-34z" />
    <glyph glyph-name="uniE669" unicode="&#xe669;" 
d="M428 227v0l-1 -1l1 1v0zM455 313q0 9 -6.5 15.5t-14.5 6.5h-86v20q0 14 -10 23.5t-23 9.5h-121q-14 0 -24 -9.5t-10 -23.5v-20h-85q-9 0 -15 -6.5t-6 -15.5v-224q0 -9 6 -15.5t15 -6.5h359q8 0 14.5 6.5t6.5 15.5v191v0v33v0zM184 355q0 4 3 7t7 3h121q4 0 7 -3t3 -7v-20
h-141v20v0zM428 227v-134h-348v134h127v27h-127v53h348v-53h-128v-27h128q2 0 1.5 0h-1.5v0zM288 162h-68q-5 0 -8.5 3.5t-3.5 8.5v93q0 6 3.5 9.5t8.5 3.5h68q5 0 8.5 -3.5t3.5 -9.5v-93q0 -5 -3.5 -8.5t-8.5 -3.5v0zM232 186h44v69h-44v-69v0z" />
  </font>
</defs>
</svg>
